<svg aria-hidden="true" style="position: absolute; width: 0; height: 0; overflow: hidden;" version="1.1" xmlns="http://www.w3.org/2000/svg" xmlns:xlink="http://www.w3.org/1999/xlink">
<defs>
<symbol id="clock" viewBox="0 0 32 32">
<title>clock</title>
<path d="M16 0c-8.822 0-16 7.178-16 16s7.178 16 16 16 16-7.178 16-16-7.178-16-16-16zM16 30c-7.72 0-14-6.28-14-14s6.28-14 14-14 14 6.28 14 14-6.28 14-14 14z"></path>
<path d="M17 6h-2v10.414l6.293 6.293 1.414-1.414-5.707-5.707z"></path>
</symbol>
<symbol id="compass" viewBox="0 0 32 32">
<title>compass</title>
<path d="M32 16c0-0.046-0.007-0.091-0.007-0.137-0.033-4.049-1.593-8.091-4.676-11.18-3.024-3.017-7.040-4.682-11.311-4.682 0 0 0 0-0.007 0 0 0 0 0-0.007 0-4.271 0-8.287 1.665-11.305 4.689-3.089 3.082-4.643 7.125-4.682 11.174-0.007 0.046-0.007 0.091-0.007 0.137s0.007 0.091 0.007 0.137c0.033 4.049 1.593 8.091 4.676 11.18 3.024 3.017 7.047 4.682 11.318 4.682v0 0 0c4.271 0 8.294-1.665 11.311-4.689 3.082-3.082 4.643-7.125 4.676-11.18 0.007-0.039 0.013-0.085 0.013-0.131zM28.571 17.123h1.136c-0.229 2.795-1.3 5.525-3.22 7.785l-0.81-0.81c-0.438-0.438-1.149-0.438-1.587 0s-0.438 1.149 0 1.587l0.81 0.81c-2.201 1.874-4.904 2.998-7.785 3.226v-1.143c0-0.62-0.503-1.117-1.117-1.117-0.62 0-1.123 0.503-1.123 1.117v1.136c-2.88-0.229-5.584-1.352-7.785-3.226l0.81-0.81c0.438-0.438 0.438-1.149 0-1.587s-1.149-0.438-1.587 0l-0.81 0.81c-1.913-2.253-2.985-4.989-3.213-7.778h1.136c0.62 0 1.123-0.503 1.123-1.117 0-0.62-0.503-1.123-1.123-1.123h-1.136c0.229-2.795 1.3-5.525 3.22-7.785l0.81 0.81c0.215 0.215 0.503 0.327 0.79 0.327s0.575-0.111 0.79-0.327c0.438-0.438 0.438-1.149 0-1.587l-0.81-0.81c2.201-1.874 4.904-2.991 7.785-3.226v1.143c0 0.62 0.503 1.123 1.123 1.123s1.117-0.503 1.117-1.123v-1.143c2.88 0.229 5.584 1.352 7.785 3.226l-0.803 0.81c-0.438 0.438-0.438 1.149 0 1.587 0.215 0.216 0.503 0.327 0.79 0.327s0.575-0.111 0.79-0.327l0.81-0.81c1.92 2.26 2.991 4.996 3.22 7.784h-1.136c-0.62 0-1.117 0.503-1.117 1.123-0.007 0.614 0.496 1.117 1.117 1.117z"></path>
<path d="M19.337 13.238c-0.111-0.255-0.32-0.464-0.575-0.575l-8.242-3.618c-0.425-0.183-0.914-0.091-1.241 0.235s-0.418 0.816-0.235 1.241l3.618 8.242c0.111 0.255 0.32 0.464 0.575 0.575l8.242 3.618c0.144 0.065 0.3 0.091 0.451 0.091h0.007c0.62 0 1.117-0.503 1.117-1.117 0-0.202-0.052-0.392-0.144-0.555l-3.572-8.137zM14.537 17.463l-2.286-5.211 5.211 2.286 2.286 5.211-5.211-2.286z"></path>
</symbol>
<symbol id="envelope-1" viewBox="0 0 32 32">
<title>envelope-1</title>
<path d="M28.094 3.824h-24.18c-2.159 0-3.913 1.755-3.913 3.913v16.526c0 2.159 1.755 3.913 3.913 3.913h24.174c2.159 0 3.913-1.755 3.913-3.913v-16.52c0.007-2.159-1.748-3.92-3.906-3.92zM30.219 24.263c0 1.172-0.953 2.125-2.125 2.125h-24.18c-1.172 0-2.125-0.953-2.125-2.125v-16.52c0-1.172 0.953-2.125 2.125-2.125h24.174c1.172 0 2.125 0.953 2.125 2.125v16.52h0.007z"></path>
<path d="M20.181 15.795l7.826-7.018c0.364-0.331 0.397-0.894 0.066-1.265-0.331-0.364-0.894-0.397-1.265-0.066l-10.792 9.687-2.106-1.88c-0.007-0.007-0.013-0.013-0.013-0.020-0.046-0.046-0.093-0.086-0.146-0.126l-8.568-7.667c-0.371-0.331-0.934-0.298-1.265 0.073s-0.298 0.934 0.073 1.265l7.919 7.078-7.886 7.383c-0.358 0.338-0.377 0.9-0.040 1.265 0.179 0.185 0.417 0.285 0.656 0.285 0.218 0 0.437-0.079 0.609-0.238l8.005-7.489 2.172 1.94c0.172 0.152 0.384 0.225 0.596 0.225s0.43-0.079 0.596-0.232l2.231-2 7.959 7.561c0.172 0.166 0.397 0.245 0.616 0.245 0.238 0 0.47-0.093 0.649-0.278 0.338-0.358 0.324-0.927-0.033-1.265l-7.859-7.462z"></path>
</symbol>
<symbol id="envelope" viewBox="0 0 32 32">
<title>envelope</title>
<path d="M28.094 3.824h-24.18c-2.159 0-3.913 1.755-3.913 3.913v16.526c0 2.159 1.755 3.913 3.913 3.913h24.174c2.159 0 3.913-1.755 3.913-3.913v-16.52c0.007-2.159-1.748-3.92-3.906-3.92zM30.219 24.263c0 1.172-0.953 2.125-2.125 2.125h-24.18c-1.172 0-2.125-0.953-2.125-2.125v-16.52c0-1.172 0.953-2.125 2.125-2.125h24.174c1.172 0 2.125 0.953 2.125 2.125v16.52h0.007z"></path>
<path d="M20.181 15.795l7.826-7.018c0.364-0.331 0.397-0.894 0.066-1.265-0.331-0.364-0.894-0.397-1.265-0.066l-10.792 9.687-2.106-1.88c-0.007-0.007-0.013-0.013-0.013-0.020-0.046-0.046-0.093-0.086-0.146-0.126l-8.568-7.667c-0.371-0.331-0.934-0.298-1.265 0.073s-0.298 0.934 0.073 1.265l7.919 7.078-7.886 7.383c-0.358 0.338-0.377 0.9-0.040 1.265 0.179 0.185 0.417 0.285 0.656 0.285 0.218 0 0.437-0.079 0.609-0.238l8.005-7.489 2.172 1.94c0.172 0.152 0.384 0.225 0.596 0.225s0.43-0.079 0.596-0.232l2.231-2 7.959 7.561c0.172 0.166 0.397 0.245 0.616 0.245 0.238 0 0.47-0.093 0.649-0.278 0.338-0.358 0.324-0.927-0.033-1.265l-7.859-7.462z"></path>
</symbol>
<symbol id="forward" viewBox="0 0 32 32">
<title>forward</title>
<path d="M31.622 14.772c-0.079-0.118-0.158-0.237-0.276-0.315-0.118-0.118-0.197-0.197-0.315-0.276l-12.656-8.714c-0.513-0.355-1.065-0.434-1.617-0.355-0.552 0.118-1.065 0.394-1.38 0.907-0.118 0.197-0.237 0.394-0.276 0.591-0.039 0.158-0.079 0.315-0.079 0.473 0 0.039 0 0.118 0 0.158v6.23l-11.671-8.004c-0.513-0.355-1.065-0.434-1.617-0.355-0.552 0.118-1.065 0.394-1.38 0.907-0.118 0.197-0.237 0.394-0.276 0.591-0.039 0.158-0.079 0.315-0.079 0.473 0 0.039 0 0.118 0 0.158v17.506c0 0.591 0.237 1.143 0.631 1.538s0.946 0.631 1.538 0.631c0.237 0 0.513-0.039 0.71-0.118l12.144-8.28v6.23c0 0.591 0.237 1.143 0.631 1.538s0.946 0.631 1.538 0.631c0.237 0 0.513-0.039 0.71-0.118 0.237-0.079 0.434-0.197 0.591-0.355l12.578-8.674c0.513-0.355 0.789-0.867 0.907-1.38 0.079-0.552-0.039-1.143-0.355-1.617zM14.864 16.073l-12.617 8.714c-0.039 0-0.039 0.039-0.079 0.039h-0.079c-0.039 0-0.079 0-0.079-0.039-0.039-0.039-0.039-0.039-0.039-0.079v-17.388c0-0.039 0-0.039 0-0.079v-0.079c0-0.039 0.039-0.039 0.079-0.039s0.079 0 0.079 0l12.656 8.753c0 0.039 0.039 0.079 0 0.079 0.118 0.079 0.079 0.118 0.079 0.118zM29.887 16.073l-12.578 8.714c-0.039 0-0.039 0.039-0.079 0.039h-0.079c-0.039 0-0.079 0-0.079-0.039-0.039-0.039-0.039-0.039-0.039-0.079v-17.388c0-0.039 0-0.039 0-0.079v-0.079c0-0.039 0.039-0.039 0.079-0.039s0.079 0 0.079 0l6.348 4.377 6.309 4.377c0 0.039 0.039 0.079 0 0.079 0.079 0.079 0.079 0.118 0.039 0.118z"></path>
</symbol>
<symbol id="heart" viewBox="0 0 32 32">
<title>heart</title>
<path d="M29.415 4.545c-1.676-1.676-3.894-2.591-6.262-2.591s-4.593 0.923-6.268 2.598l-0.875 0.875-0.889-0.889c-1.676-1.676-3.908-2.605-6.275-2.605-2.361 0-4.586 0.923-6.255 2.591-1.676 1.676-2.598 3.901-2.591 6.268 0 2.368 0.929 4.586 2.605 6.262l12.74 12.74c0.176 0.176 0.414 0.271 0.644 0.271s0.468-0.088 0.644-0.265l12.767-12.72c1.676-1.676 2.598-3.901 2.598-6.268 0.007-2.368-0.909-4.593-2.585-6.268zM28.113 15.786l-12.123 12.075-12.096-12.096c-1.33-1.33-2.062-3.094-2.062-4.973s0.726-3.643 2.056-4.966c1.323-1.323 3.087-2.056 4.959-2.056 1.879 0 3.65 0.733 4.979 2.062l1.533 1.533c0.36 0.36 0.936 0.36 1.296 0l1.52-1.52c1.33-1.33 3.1-2.062 4.973-2.062s3.636 0.733 4.966 2.056c1.33 1.33 2.056 3.094 2.056 4.973 0.007 1.879-0.726 3.643-2.056 4.973z"></path>
</symbol>
<symbol id="money" viewBox="0 0 32 32">
<title>money</title>
<path d="M14.933 8.8c0 0.295 0.239 0.533 0.533 0.533s0.533-0.239 0.533-0.533c-0.052-1.196-0.948-2.184-2.133-2.351v-0.049c0-0.295-0.239-0.533-0.533-0.533s-0.533 0.239-0.533 0.533v0.049c-1.185 0.167-2.082 1.156-2.133 2.351 0.052 1.196 0.948 2.184 2.133 2.351v2.633c-0.594-0.135-1.028-0.644-1.067-1.251 0-0.295-0.239-0.533-0.533-0.533s-0.533 0.239-0.533 0.533c0.052 1.196 0.948 2.184 2.133 2.351v0.049c0 0.295 0.239 0.533 0.533 0.533s0.533-0.239 0.533-0.533v-0.049c1.185-0.167 2.082-1.156 2.133-2.351-0.052-1.196-0.948-2.184-2.133-2.351v-2.633c0.594 0.135 1.028 0.644 1.067 1.251zM11.733 8.8c0.039-0.607 0.473-1.117 1.067-1.251v2.502c-0.594-0.135-1.028-0.644-1.067-1.251zM14.933 12.533c-0.039 0.607-0.473 1.117-1.067 1.251v-2.502c0.594 0.135 1.028 0.644 1.067 1.251z"></path>
<path d="M1.067 17.6h1.067v1.6c0 0.589 0.478 1.067 1.067 1.067h1.067v1.6c0 0.589 0.478 1.067 1.067 1.067h10.133c0.295 0 0.533-0.239 0.533-0.533s-0.239-0.533-0.533-0.533h-10.133v-1.6h10.133c0.295 0 0.533-0.239 0.533-0.533s-0.239-0.533-0.533-0.533h-12.267v-1.6h10.133c3.529 0 6.4-3.11 6.4-6.933 0.026-2.331-1.098-4.526-3.005-5.867h8.871v6.933c0 0.295 0.239 0.533 0.533 0.533s0.533-0.239 0.533-0.533v-6.933c0-0.589-0.478-1.067-1.067-1.067h-19.733c-0.295 0-0.533 0.239-0.533 0.533s0.239 0.533 0.533 0.533h4.071c-1.907 1.341-3.031 3.535-3.005 5.867-0.027 2.331 1.098 4.526 3.005 5.867h-8.871v-11.733h2.133c0.295 0 0.533-0.239 0.533-0.533s-0.239-0.533-0.533-0.533h-2.133c-0.589 0-1.067 0.478-1.067 1.067v11.733c0 0.589 0.478 1.067 1.067 1.067zM8 10.667c0-3.235 2.393-5.867 5.333-5.867s5.333 2.632 5.333 5.867-2.393 5.867-5.333 5.867-5.333-2.632-5.333-5.867z"></path>
<path d="M4.8 5.867h-2.133c-0.295 0-0.533 0.239-0.533 0.533v2.133c0 0.295 0.239 0.533 0.533 0.533s0.533-0.239 0.533-0.533v-1.6h1.6c0.295 0 0.533-0.239 0.533-0.533s-0.239-0.533-0.533-0.533z"></path>
<path d="M24 9.067c0.295 0 0.533-0.239 0.533-0.533v-2.133c0-0.295-0.239-0.533-0.533-0.533h-2.133c-0.295 0-0.533 0.239-0.533 0.533s0.239 0.533 0.533 0.533h1.6v1.6c0 0.295 0.239 0.533 0.533 0.533z"></path>
<path d="M2.667 12.267c-0.295 0-0.533 0.239-0.533 0.533v2.133c0 0.295 0.239 0.533 0.533 0.533h2.133c0.295 0 0.533-0.239 0.533-0.533s-0.239-0.533-0.533-0.533h-1.6v-1.6c0-0.295-0.239-0.533-0.533-0.533z"></path>
<path d="M24.533 13.333c-4.124 0-7.467 3.343-7.467 7.467s3.343 7.467 7.467 7.467 7.467-3.343 7.467-7.467c-0.004-4.122-3.345-7.462-7.467-7.467zM24.533 27.2c-3.535 0-6.4-2.865-6.4-6.4s2.865-6.4 6.4-6.4 6.4 2.865 6.4 6.4c-0.004 3.533-2.867 6.396-6.4 6.4z"></path>
<path d="M25.067 20.579v-4.046c0-0.295-0.239-0.533-0.533-0.533s-0.533 0.239-0.533 0.533v4.267c0 0.141 0.056 0.277 0.156 0.377l2.133 2.133c0.209 0.202 0.542 0.199 0.748-0.006s0.209-0.538 0.006-0.748z"></path>
</symbol>
<symbol id="phone-call" viewBox="0 0 32 32">
<title>phone-call</title>
<path d="M25.29 19.823c-0.655-0.682-1.445-1.047-2.283-1.047-0.831 0-1.628 0.358-2.31 1.040l-2.134 2.127c-0.176-0.095-0.351-0.182-0.52-0.27-0.243-0.122-0.473-0.236-0.669-0.358-1.999-1.27-3.816-2.924-5.558-5.065-0.844-1.067-1.412-1.965-1.824-2.877 0.554-0.507 1.067-1.033 1.567-1.54 0.189-0.189 0.378-0.385 0.567-0.574 1.418-1.418 1.418-3.255 0-4.674l-1.844-1.844c-0.209-0.209-0.425-0.425-0.628-0.642-0.405-0.419-0.831-0.851-1.27-1.256-0.655-0.648-1.439-0.993-2.263-0.993s-1.621 0.344-2.296 0.993c-0.007 0.007-0.007 0.007-0.014 0.014l-2.296 2.317c-0.865 0.865-1.358 1.918-1.466 3.141-0.162 1.972 0.419 3.809 0.865 5.011 1.094 2.951 2.729 5.687 5.167 8.618 2.958 3.532 6.517 6.322 10.583 8.287 1.553 0.736 3.627 1.607 5.943 1.756 0.142 0.007 0.29 0.014 0.425 0.014 1.56 0 2.87-0.561 3.897-1.675 0.007-0.014 0.020-0.020 0.027-0.034 0.351-0.425 0.756-0.81 1.182-1.222 0.29-0.277 0.588-0.567 0.878-0.871 0.669-0.696 1.020-1.506 1.020-2.337 0-0.837-0.358-1.641-1.040-2.317l-3.708-3.721zM27.708 26.935c-0.007 0-0.007 0.007 0 0-0.263 0.284-0.534 0.54-0.824 0.824-0.439 0.419-0.885 0.858-1.303 1.351-0.682 0.729-1.486 1.074-2.539 1.074-0.101 0-0.209 0-0.311-0.007-2.006-0.128-3.87-0.912-5.268-1.58-3.823-1.851-7.179-4.478-9.969-7.807-2.303-2.776-3.843-5.342-4.863-8.098-0.628-1.682-0.858-2.992-0.756-4.228 0.068-0.79 0.371-1.445 0.932-2.006l2.303-2.303c0.331-0.311 0.682-0.48 1.027-0.48 0.425 0 0.77 0.257 0.986 0.473 0.007 0.007 0.013 0.013 0.020 0.020 0.412 0.385 0.804 0.783 1.216 1.209 0.209 0.216 0.425 0.432 0.642 0.655l1.844 1.844c0.716 0.716 0.716 1.378 0 2.094-0.196 0.196-0.385 0.392-0.581 0.581-0.567 0.581-1.108 1.121-1.695 1.648-0.014 0.014-0.027 0.020-0.034 0.034-0.581 0.581-0.473 1.148-0.351 1.533 0.007 0.020 0.014 0.041 0.020 0.061 0.48 1.162 1.155 2.256 2.181 3.559l0.007 0.007c1.864 2.296 3.829 4.086 5.997 5.457 0.277 0.176 0.561 0.317 0.831 0.453 0.243 0.122 0.473 0.236 0.669 0.358 0.027 0.014 0.054 0.034 0.081 0.047 0.23 0.115 0.446 0.169 0.669 0.169 0.561 0 0.912-0.351 1.027-0.466l2.31-2.31c0.23-0.23 0.594-0.507 1.020-0.507 0.419 0 0.763 0.263 0.973 0.493 0.007 0.007 0.007 0.007 0.014 0.014l3.721 3.721c0.696 0.689 0.696 1.398 0.007 2.114z"></path>
<path d="M17.294 7.612c1.77 0.297 3.377 1.135 4.66 2.418s2.114 2.891 2.418 4.66c0.074 0.446 0.459 0.756 0.898 0.756 0.054 0 0.101-0.007 0.155-0.014 0.5-0.081 0.831-0.554 0.75-1.054-0.365-2.141-1.378-4.093-2.924-5.639s-3.498-2.56-5.639-2.924c-0.5-0.081-0.966 0.25-1.054 0.743s0.236 0.973 0.736 1.054z"></path>
<path d="M31.963 14.116c-0.601-3.525-2.263-6.734-4.815-9.287s-5.761-4.214-9.287-4.815c-0.493-0.088-0.959 0.25-1.047 0.743-0.081 0.5 0.25 0.966 0.75 1.054 3.147 0.534 6.018 2.026 8.3 4.302 2.283 2.283 3.769 5.153 4.302 8.3 0.074 0.446 0.459 0.756 0.898 0.756 0.054 0 0.101-0.007 0.155-0.014 0.493-0.074 0.831-0.547 0.743-1.040z"></path>
</symbol>
<symbol id="shopping-cart" viewBox="0 0 32 32">
<title>shopping-cart</title>
<path d="M9.606 21.070h17.632c1.999 0 3.63-1.631 3.63-3.63v-7.418c0-0.007 0-0.020 0-0.026 0-0.020 0-0.033 0-0.053 0-0.013 0-0.026-0.007-0.039 0-0.013-0.007-0.033-0.007-0.046s-0.007-0.026-0.007-0.039c-0.007-0.013-0.007-0.026-0.013-0.046-0.007-0.013-0.007-0.026-0.013-0.039s-0.007-0.026-0.013-0.039c-0.007-0.013-0.013-0.026-0.020-0.046-0.007-0.013-0.013-0.026-0.020-0.033-0.007-0.013-0.013-0.026-0.020-0.039s-0.013-0.020-0.020-0.033c-0.007-0.013-0.020-0.026-0.026-0.039s-0.013-0.020-0.026-0.033c-0.007-0.013-0.020-0.020-0.026-0.033s-0.020-0.020-0.026-0.033-0.020-0.020-0.026-0.026c-0.013-0.013-0.020-0.020-0.033-0.033-0.013-0.007-0.020-0.020-0.033-0.026s-0.026-0.020-0.039-0.026c-0.013-0.007-0.020-0.013-0.033-0.020s-0.026-0.013-0.039-0.026c-0.013-0.007-0.026-0.013-0.039-0.020s-0.026-0.013-0.039-0.020-0.026-0.013-0.039-0.020-0.026-0.007-0.039-0.013c-0.013-0.007-0.033-0.013-0.046-0.013s-0.026-0.007-0.033-0.007-0.033-0.007-0.053-0.007c-0.007 0-0.013-0.007-0.026-0.007l-22.348-3.084v-3.117c0-0.033 0-0.066-0.007-0.092 0-0.007 0-0.013-0.007-0.026 0-0.020-0.007-0.039-0.007-0.059-0.007-0.020-0.007-0.033-0.013-0.053 0-0.013-0.007-0.020-0.007-0.033-0.007-0.020-0.013-0.039-0.020-0.059 0-0.007-0.007-0.020-0.007-0.026-0.007-0.020-0.013-0.033-0.026-0.053-0.007-0.007-0.007-0.020-0.013-0.026-0.007-0.013-0.013-0.026-0.026-0.039-0.007-0.013-0.013-0.020-0.020-0.033s-0.013-0.020-0.020-0.033-0.020-0.026-0.026-0.039c-0.007-0.007-0.013-0.013-0.020-0.020-0.013-0.013-0.026-0.026-0.039-0.039-0.007-0.007-0.013-0.013-0.020-0.020-0.013-0.013-0.026-0.026-0.046-0.039-0.007-0.007-0.020-0.013-0.026-0.020-0.013-0.013-0.026-0.020-0.039-0.033-0.020-0.013-0.039-0.026-0.053-0.033-0.007-0.007-0.013-0.007-0.020-0.013-0.026-0.013-0.059-0.026-0.085-0.039l-4.847-2.039c-0.454-0.191-0.973 0.020-1.164 0.474s0.020 0.973 0.474 1.164l4.301 1.815v19.454c0 1.841 1.381 3.367 3.163 3.597-0.322 0.539-0.513 1.171-0.513 1.841 0 1.98 1.611 3.584 3.584 3.584s3.584-1.611 3.584-3.584c0-0.658-0.178-1.282-0.493-1.809h7.984c-0.316 0.533-0.493 1.151-0.493 1.809 0 1.98 1.611 3.584 3.584 3.584s3.584-1.611 3.584-3.584-1.611-3.584-3.584-3.584h-16.77c-1.026 0-1.855-0.835-1.855-1.855v-2.407c0.539 0.316 1.177 0.5 1.855 0.5zM14.026 28.409c0 1-0.816 1.809-1.809 1.809s-1.809-0.816-1.809-1.809 0.816-1.809 1.809-1.809 1.809 0.809 1.809 1.809zM28.192 28.409c0 1-0.816 1.809-1.809 1.809s-1.809-0.816-1.809-1.809 0.816-1.809 1.809-1.809 1.809 0.809 1.809 1.809zM27.238 19.294h-17.632c-1.026 0-1.855-0.835-1.855-1.855v-9.595l21.341 2.94v6.649c0 1.033-0.835 1.861-1.855 1.861z"></path>
</symbol>
<symbol id="shuffle" viewBox="0 0 32 32">
<title>shuffle</title>
<path d="M12.234 22.389c-0.407-0.305-0.977-0.224-1.283 0.183-1.527 2.023-3.855 3.183-6.387 3.183h-2.525c-0.509 0-0.916 0.407-0.916 0.916s0.407 0.916 0.916 0.916h2.532c1.568 0 3.068-0.36 4.452-1.066 1.323-0.672 2.498-1.656 3.394-2.851 0.299-0.4 0.224-0.977-0.183-1.283z"></path>
<path d="M14.82 9.507c0.17 0.129 0.367 0.19 0.563 0.19 0.271 0 0.543-0.122 0.726-0.353 1.527-1.968 3.828-3.095 6.312-3.095h5.328l-2.844 2.844c-0.36 0.36-0.36 0.937 0 1.296 0.176 0.176 0.414 0.271 0.645 0.271s0.468-0.088 0.645-0.271l4.412-4.412c0.36-0.36 0.36-0.937 0-1.296l-4.412-4.412c-0.36-0.36-0.937-0.36-1.296 0s-0.36 0.937 0 1.296l2.844 2.844h-5.328c-3.054 0-5.884 1.385-7.765 3.808-0.299 0.407-0.231 0.977 0.17 1.29z"></path>
<path d="M26.202 21.616c-0.36-0.36-0.937-0.36-1.296 0s-0.36 0.937 0 1.296l2.844 2.844h-5.328c-4.405 0-7.989-3.584-7.989-7.989v-3.529c0-5.416-4.405-9.821-9.821-9.821h-2.532c-0.509 0-0.916 0.407-0.916 0.916s0.407 0.916 0.916 0.916h2.532c4.405 0 7.989 3.584 7.989 7.989v3.529c0 5.416 4.405 9.821 9.821 9.821h5.328l-2.844 2.844c-0.36 0.36-0.36 0.937 0 1.296 0.176 0.176 0.414 0.271 0.645 0.271s0.468-0.088 0.645-0.271l4.412-4.412c0.36-0.36 0.36-0.937 0-1.296l-4.405-4.405z"></path>
</symbol>
<symbol id="worldwide" viewBox="0 0 32 32">
<title>worldwide</title>
<path d="M28.39 2.671c0-0.216-0.177-0.386-0.393-0.386 0 0 0 0-0.007 0-0.216 0-0.393 0.183-0.386 0.399l0.026 2.316-0.451-0.438c-3.056-2.984-7.093-4.6-11.366-4.554s-8.271 1.76-11.255 4.816c-2.14 2.186-3.599 4.921-4.221 7.905-0.602 2.905-0.399 5.909 0.602 8.696 0.059 0.151 0.209 0.249 0.373 0.249 0.046 0 0.092-0.007 0.131-0.026 0.203-0.072 0.308-0.301 0.236-0.504-1.983-5.529-0.667-11.576 3.435-15.776 5.863-6 15.515-6.112 21.509-0.249l0.451 0.438-2.31 0.033c-0.216 0-0.393 0.183-0.386 0.399 0 0.216 0.177 0.386 0.393 0.386 0 0 0 0 0.007 0l3.265-0.039c0.105 0 0.203-0.046 0.275-0.118s0.111-0.177 0.111-0.281l-0.039-3.265z"></path>
<path d="M31.060 10.576c-0.079-0.196-0.308-0.301-0.51-0.229s-0.308 0.301-0.236 0.504c1.983 5.536 0.667 11.582-3.435 15.783-2.977 3.043-6.93 4.574-10.882 4.574-3.835 0-7.676-1.44-10.633-4.325l-0.452-0.438 2.316-0.026c0.216 0 0.393-0.183 0.386-0.399 0-0.216-0.183-0.393-0.399-0.386l-3.259 0.033c-0.216 0-0.393 0.183-0.386 0.399l0.039 3.265c0 0.216 0.177 0.386 0.393 0.386 0 0 0 0 0.007 0 0.216 0 0.393-0.183 0.386-0.399l-0.026-2.316 0.452 0.438c3.010 2.945 6.975 4.554 11.176 4.554 0.065 0 0.124 0 0.19 0 4.273-0.046 8.271-1.76 11.255-4.816 2.14-2.186 3.599-4.921 4.221-7.905 0.602-2.905 0.399-5.909-0.602-8.696z"></path>
<path d="M24.837 12.336c-1.413-3.403-4.613-5.667-8.251-5.889-0.118-0.013-0.229-0.020-0.347-0.020-0.013 0-0.026 0-0.033 0-0.072 0-0.137-0.007-0.209-0.007-1.256 0-2.487 0.249-3.658 0.733-4.881 2.022-7.204 7.63-5.182 12.505 1.485 3.592 4.96 5.915 8.847 5.915 0.052 0 0.098 0 0.151 0 0.026 0 0.059 0 0.085 0 0.013 0 0.033 0 0.046 0 0.085 0 0.164-0.007 0.249-0.013 1.073-0.059 2.12-0.301 3.128-0.713 2.362-0.975 4.201-2.82 5.182-5.176s0.975-4.967-0.007-7.335zM12.633 7.88c0.281-0.118 0.576-0.222 0.864-0.308-0.478 0.438-0.916 0.995-1.302 1.656-0.478 0.831-0.857 1.799-1.126 2.866h-2.945c0.916-1.832 2.467-3.363 4.508-4.214zM11.698 12.886h4.142v6.229h-4.109c-0.216-0.995-0.334-2.055-0.334-3.115 0-1.099 0.105-2.153 0.301-3.115zM7.771 19.122c-0.779-2.081-0.726-4.293 0.013-6.243 0.020 0 0.033 0.007 0.052 0.007h3.056c-0.19 0.982-0.288 2.035-0.288 3.115 0 1.073 0.105 2.12 0.308 3.115h-3.082c-0.020 0-0.039 0-0.059 0.007zM8.125 19.9h2.984c0.262 0.995 0.628 1.917 1.086 2.729 0.419 0.746 0.896 1.361 1.413 1.832-2.369-0.667-4.371-2.303-5.483-4.561zM15.846 24.756c-1.099-0.17-2.14-1.047-2.964-2.513-0.386-0.694-0.707-1.485-0.949-2.343h3.913v4.855zM15.846 12.101h-3.959c0.72-2.716 2.192-4.613 3.959-4.855v4.855zM23.869 12.101h-2.467c-0.268-1.067-0.648-2.035-1.125-2.866-0.314-0.543-0.667-1.014-1.047-1.407 1.996 0.785 3.658 2.29 4.639 4.273zM16.631 7.245c1.767 0.249 3.232 2.14 3.959 4.855h-3.959v-4.855zM16.631 12.886h4.142c0.196 0.962 0.301 2.009 0.301 3.115 0 1.060-0.118 2.12-0.334 3.115h-4.109v-6.229zM16.631 24.756v-4.855h3.913c-0.242 0.857-0.563 1.649-0.949 2.343-0.831 1.466-1.871 2.343-2.964 2.513zM19.36 24.121c-0.079 0.033-0.164 0.065-0.242 0.098 0.419-0.432 0.811-0.962 1.165-1.59 0.458-0.811 0.825-1.734 1.086-2.729h2.506c-0.949 1.911-2.532 3.396-4.515 4.221zM24.209 19.115h-2.663c0.203-0.995 0.308-2.048 0.308-3.115 0-1.086-0.098-2.133-0.288-3.115h2.637c0.779 2.015 0.779 4.207 0.007 6.229z"></path>
</symbol>
</defs>
</svg>
